<?xml version="1.0" encoding="utf-8"?>
<!-- Generator: Adobe Illustrator 21.0.0, SVG Export Plug-In . SVG Version: 6.00 Build 0)  -->
<svg version="1.1" xmlns="http://www.w3.org/2000/svg" xmlns:xlink="http://www.w3.org/1999/xlink" x="0px" y="0px"
	 viewBox="0 0 400 400" style="enable-background:new 0 0 400 400;" xml:space="preserve">
<style type="text/css">
	.st0{fill:#00485E;stroke:#FFFFFF;stroke-width:8;stroke-miterlimit:10;}
	.st1{fill:#B63C31;}
	.st2{fill:#FFD415;}
	.st3{fill:#0CA0E2;}
	.st4{fill:#F7CD5D;}
	.st5{fill:#262626;}
	.st6{fill:#1D8972;}
	.st7{fill:#FFFFFF;}
	.st8{fill:#BB3F34;}
	.st9{fill:#FFC800;}
	.st10{fill:#59CB9A;}
</style>
<g id="icone-1">
	<g id="fundo_circular">
		<circle class="st0" cx="182.2" cy="249.1" r="44.8"/>
		<g id="carrinho">
			<circle class="st1" cx="193.4" cy="266.5" r="2.1"/>
			<circle class="st1" cx="169.4" cy="266.5" r="2.1"/>
			<path class="st2" d="M161.2,235.1l4.1,23.5h30.5l6-23.5H161.2z M178.2,253.5l15.6-9.2l0.3,0.5l-15.6,9.2L178.2,253.5z
				 M172.4,249.7l11.7-7.4l0.3,0.5l-11.7,7.4L172.4,249.7z"/>
			<path class="st3" d="M165.5,260.8h30.7l7.7-30.8c0-0.1,0.1-0.2,0.2-0.3c0,0,0,0,0,0c0,0,0.1,0,0.1-0.1c0.1-0.1,0.2-0.1,0.3-0.1
				h6.7c0.3,0,0.6,0.3,0.6,0.6v0.1c0,0.3-0.3,0.6-0.6,0.6h-6.2l-7.7,30.8c0,0,0,0,0,0c0,0,0,0.1-0.1,0.1c0,0,0,0.1-0.1,0.1
				c0,0-0.1,0.1-0.1,0.1c0,0-0.1,0.1-0.1,0.1c0,0-0.1,0-0.1,0c0,0-0.1,0-0.1,0c0,0,0,0,0,0h-31.2c-0.4,0-0.7-0.3-0.7-0.7
				C164.8,261.1,165.1,260.8,165.5,260.8z"/>
		</g>
	</g>
</g>
<g id="icone-2">
	<g id="fundo_circular_2_">
		<circle class="st0" cx="217.8" cy="284.2" r="44.8"/>
		<g id="pagina_1_">
			<path class="st4" d="M245,303.8h-54.3c-0.5,0-0.9-0.4-0.9-0.9v-37.5c0-0.5,0.4-0.9,0.9-0.9H245c0.5,0,0.9,0.4,0.9,0.9V303
				C245.8,303.5,245.4,303.8,245,303.8z"/>
			<path class="st5" d="M245.5,264.6h-55.4c-0.2,0-0.3,0.1-0.3,0.3v3.3v0.7v0.3h0.3h0.3h54.9h0.2h0.3V269v-0.5v-3.6
				C245.8,264.8,245.7,264.6,245.5,264.6z"/>
			<rect x="199.5" y="274.9" class="st5" width="10.6" height="8.7"/>
			<rect x="212.4" y="285.3" class="st5" width="23.1" height="8.2"/>
			<rect x="212.3" y="275" class="st6" width="23.2" height="0.8"/>
			<rect x="212.3" y="276.6" class="st6" width="23.2" height="0.8"/>
			<rect x="212.3" y="278.2" class="st6" width="23.2" height="0.8"/>
			<rect x="212.3" y="279.7" class="st6" width="23.2" height="0.8"/>
			<rect x="212.3" y="281.3" class="st6" width="23.2" height="0.8"/>
			<rect x="212.3" y="282.9" class="st6" width="23.2" height="0.8"/>
			<rect x="199.6" y="287.5" class="st6" width="10.2" height="0.8"/>
			<rect x="199.6" y="289.1" class="st6" width="10.2" height="0.8"/>
			<rect x="199.6" y="290.6" class="st6" width="10.2" height="0.8"/>
			<path class="st7" d="M242.4,268.1h-42.6c-0.5,0-1-0.4-1-1v-0.3c0-0.5,0.4-1,1-1h42.6c0.5,0,1,0.4,1,1v0.3
				C243.4,267.7,243,268.1,242.4,268.1z"/>
			<g>
				<circle class="st8" cx="192" cy="267" r="0.6"/>
				<circle class="st9" cx="193.8" cy="267" r="0.6"/>
				<circle class="st10" cx="195.6" cy="267" r="0.6"/>
			</g>
		</g>
	</g>
</g>
</svg>
