<svg xmlns="http://www.w3.org/2000/svg" viewBox="0 0 423 191"><defs><style>.cls-1{fill:#00212d;}</style></defs><title>lenossa-card</title><g id="Camada_2" data-name="Camada 2"><g id="Camada_1-2" data-name="Camada 1"><path class="cls-1" d="M408.87,0H14.13A14.17,14.17,0,0,0,0,14.13V176.87A14.17,14.17,0,0,0,14.13,191H408.87A14.17,14.17,0,0,0,423,176.87V14.13A14.17,14.17,0,0,0,408.87,0ZM220.65,54.44a1.94,1.94,0,0,1,1.94-1.94h89.13a1.94,1.94,0,0,1,1.94,1.94v1.13a1.94,1.94,0,0,1-1.94,1.94H222.59a1.94,1.94,0,0,1-1.94-1.94Zm0,54.25a2.2,2.2,0,0,1,2.19-2.19H337.46a2.2,2.2,0,0,1,2.19,2.19v.62a2.2,2.2,0,0,1-2.19,2.19H222.84a2.2,2.2,0,0,1-2.19-2.19ZM92,110.42,79.19,137.5H49.24L62,110.42,49.24,83.35,62,56.27H92L79.19,83.35Zm45.46,0-12.8,27.08H94.69l12.8-27.08L94.69,83.35l12.8-27.08h29.95l-12.8,27.08Zm52.21,69.16a1.42,1.42,0,0,1-1.41,1.41h-1.17a1.42,1.42,0,0,1-1.41-1.41V11.41A1.42,1.42,0,0,1,187.06,10h1.17a1.42,1.42,0,0,1,1.41,1.41Zm94-15.68a1.6,1.6,0,0,1-1.59,1.59H222.24a1.6,1.6,0,0,1-1.59-1.59v-1.81a1.6,1.6,0,0,1,1.59-1.59h59.81a1.6,1.6,0,0,1,1.59,1.59Zm89.5-16.41h-150a2.5,2.5,0,1,1,0-5h150a2.5,2.5,0,1,1,0,5Zm0-54h-150a2.5,2.5,0,1,1,0-5h150a2.5,2.5,0,0,1,0,5Zm0-54h-150a2.5,2.5,0,1,1,0-5h150a2.5,2.5,0,0,1,0,5Z"/></g></g></svg>