<svg xmlns="http://www.w3.org/2000/svg" viewBox="0 0 710.59 321.96"><defs><style>.cls-1{fill:#00181e;}.cls-2{fill:#00212d;}.cls-3{fill:#fff;}.cls-4{fill:#003a49;}</style></defs><title>lenossa-image_1</title><g id="Camada_2" data-name="Camada 2"><g id="Camada_1-2" data-name="Camada 1"><path class="cls-1" d="M348.3,11.74a33.24,33.24,0,1,0-49.92,43.89l0,0L542.3,322h90.16Z"/><path class="cls-1" d="M95.67,81.43A54.62,54.62,0,1,0,14.89,155l0,0L173.44,322H324.11Z"/><path class="cls-2" d="M302.45,54.7A100.29,100.29,0,1,0,153.78,189.3l-.06.06L279.26,322H555.49Z"/><polygon class="cls-3" points="228.43 72.96 200.14 72.96 188.04 98.54 200.14 124.11 188.04 149.69 216.33 149.69 228.43 124.11 216.33 98.54 228.43 72.96"/><polygon class="cls-3" points="271.36 72.96 243.07 72.96 230.98 98.54 243.07 124.11 230.98 149.69 259.27 149.69 271.36 124.11 259.27 98.54 271.36 72.96"/><path class="cls-4" d="M457.78,46A36.31,36.31,0,1,0,403.25,94l0,0L612.08,322h98.5Z"/></g></g></svg>