<svg xmlns="http://www.w3.org/2000/svg" viewBox="0 0 723.77 475.18"><defs><style>.cls-1{fill:#00181e;}.cls-2{fill:#00212d;}.cls-3{fill:#003a49;}.cls-4{fill:#fff;}</style></defs><title>lenossa-image</title><g id="Camada_2" data-name="Camada 2"><g id="Camada_1-2" data-name="Camada 1"><path class="cls-1" d="M95.66,81.43A54.62,54.62,0,1,0,14.89,155l0,0L263.57,416.86l79.34-75.1Z"/><path class="cls-1" d="M348.3,11.74a33.24,33.24,0,1,0-49.92,43.89l0,0,290.36,317,49.06-44.87Z"/><path class="cls-2" d="M302.45,54.7A100.29,100.29,0,1,0,153.78,189.3l-.06.06L424.32,475.18l146-137.51Z"/><path class="cls-3" d="M457.78,46A36.31,36.31,0,1,0,403.25,94l0,0,267,291.36,53.6-49Z"/><polygon class="cls-4" points="228.43 72.96 200.14 72.96 188.04 98.54 200.14 124.11 188.04 149.69 216.33 149.69 228.43 124.11 216.33 98.54 228.43 72.96"/><polygon class="cls-4" points="271.36 72.96 243.07 72.96 230.98 98.54 243.07 124.11 230.98 149.69 259.27 149.69 271.36 124.11 259.27 98.54 271.36 72.96"/></g></g></svg>